<svg xmlns="http://www.w3.org/2000/svg" width="18.335" height="27.003" viewBox="0 0 18.335 27.003">
  <g id="figma" transform="translate(0.5 0.5)">
    <path id="Path_4" data-name="Path 4" d="M7.5,7.334A4.334,4.334,0,0,1,11.834,3h4.334v8.668H11.834A4.334,4.334,0,0,1,7.5,7.334Z" transform="translate(-7.5 -3)" fill="none" stroke="#000" stroke-linecap="round" stroke-linejoin="round" stroke-width="1"/>
    <path id="Path_5" data-name="Path 5" d="M18,3h4.334a4.334,4.334,0,1,1,0,8.668H18Z" transform="translate(-9.332 -3)" fill="none" stroke="#000" stroke-linecap="round" stroke-linejoin="round" stroke-width="1"/>
    <path id="Path_6" data-name="Path 6" d="M18,17.834a4.334,4.334,0,1,1,4.334,4.334A4.334,4.334,0,0,1,18,17.834Z" transform="translate(-9.332 -4.832)" fill="none" stroke="#000" stroke-linecap="round" stroke-linejoin="round" stroke-width="1"/>
    <path id="Path_7" data-name="Path 7" d="M7.5,28.334A4.334,4.334,0,0,1,11.834,24h4.334v4.334a4.334,4.334,0,1,1-8.668,0Z" transform="translate(-7.5 -6.665)" fill="none" stroke="#000" stroke-linecap="round" stroke-linejoin="round" stroke-width="1"/>
    <path id="Path_8" data-name="Path 8" d="M7.5,17.834A4.334,4.334,0,0,1,11.834,13.5h4.334v8.668H11.834A4.334,4.334,0,0,1,7.5,17.834Z" transform="translate(-7.5 -4.832)" fill="none" stroke="#000" stroke-linecap="round" stroke-linejoin="round" stroke-width="1"/>
  </g>
</svg>
