<svg xmlns="http://www.w3.org/2000/svg" width="25.834" height="25.835" viewBox="0 0 25.834 25.835">
  <path id="gatsby" d="M12.928.01A12.848,12.848,0,0,0,.01,12.927,12.849,12.849,0,0,0,12.927,25.846,12.849,12.849,0,0,0,25.845,12.928,12.847,12.847,0,0,0,12.928.01ZM2.818,13.04l10,10a10.02,10.02,0,0,1-10-10Zm12.356,9.773L3.043,10.681A10.152,10.152,0,0,1,21.127,6.975L19.668,8.21a8.247,8.247,0,0,0-6.852-3.594,8.137,8.137,0,0,0-7.751,5.5l10.559,10.56a8,8,0,0,0,5.167-5.842H16.41v-1.91h6.628a10.126,10.126,0,0,1-7.863,9.885Z" transform="translate(-0.01 -0.01)"/>
</svg>
