<svg xmlns="http://www.w3.org/2000/svg" width="27.625" height="27.586" viewBox="0 0 30 30">
  <g id="only-logo" transform="translate(-0.051 -0.171)">
    <path id="Path_9" data-name="Path 9" d="M25.043,100.3a2.535,2.535,0,0,1,2.619,2.3c.5,6.433-5.391,13.64-13.687,13.87A13.708,13.708,0,0,1,.068,102.582a2.42,2.42,0,0,1,4.841,0,8.867,8.867,0,0,0,8.947,9.06c5.5-.153,9.082-4.919,8.9-8.81A2.413,2.413,0,0,1,25.043,100.3Z" transform="translate(-0.015 -88.717)"/>
    <path id="Path_10" data-name="Path 10" d="M168.15,103.791a2.48,2.48,0,0,1,2.488-2.473h3.626a2.473,2.473,0,1,1,0,4.945h-3.626A2.48,2.48,0,0,1,168.15,103.791Z" transform="translate(-149.139 -89.738)"/>
    <path id="Path_11" data-name="Path 11" d="M100.7,103.794a2.471,2.471,0,1,1,2.471,2.476A2.474,2.474,0,0,1,100.7,103.794Z" transform="translate(-89.297 -89.738)"/>
    <path id="Path_12" data-name="Path 12" d="M16.276,2.486A2.412,2.412,0,0,1,13.97,5c-5.737.239-9.24,4.748-9.069,9.03a2.4,2.4,0,0,1-2.289,2.51A2.486,2.486,0,0,1,.061,14.184,13.845,13.845,0,0,1,13.77.174,2.411,2.411,0,0,1,16.276,2.486Z" transform="translate(0 0)" fill-rule="evenodd"/>
  </g>
</svg>
