<svg xmlns="http://www.w3.org/2000/svg" width="26.842" height="26.843" viewBox="0 0 26.842 26.843">
  <path id="invision" d="M24.41,2.25H2.433A2.434,2.434,0,0,0,0,4.683V26.66a2.434,2.434,0,0,0,2.433,2.433H24.41a2.434,2.434,0,0,0,2.433-2.433V4.683A2.434,2.434,0,0,0,24.41,2.25ZM10.551,9.056a1.609,1.609,0,1,1-3.218.024A1.609,1.609,0,0,1,10.551,9.056ZM19.94,22.921c-3.931,0-2.043-4.434-1.5-6.387.845-2.78-2.708-3.535-3.589.042l-1.546,6.189h-2.7l.485-1.947c-1.887,3.1-5.668,2.66-5.668-.258.006-.857.054-.839,1.378-6.237H4.9l.581-2.133h4.578c-2.013,8.011-1.953,7.6-1.971,8.28,0,1.252,2.451.809,3.439-1.39l1.186-4.757H10.773l.581-2.133h4.122l-.533,2.427c2.427-4.524,7.663-2.864,6.1,2.277-.851,3.062-.875,3.038-.893,3.523,0,.929,1.049,1.354,1.905-1.013l1.073.4C22.5,22,21.366,22.921,19.94,22.921Z" transform="translate(0 -2.25)"/>
</svg>
