<svg xmlns="http://www.w3.org/2000/svg" width="32.6" height="25.615" viewBox="0 0 32.6 25.615">
  <g id="js" transform="translate(0)">
    <path id="Path_2" data-name="Path 2" d="M-11.943,2.813h-5.821V18.276c0,3.826-1.312,4.894-3.6,4.894a8.7,8.7,0,0,1-2.783-.441l-.607,4.527a13.8,13.8,0,0,0,4,.589c5.243,0,8.812-2.465,8.812-9.531V2.813Z" transform="translate(24.75 -2.23)"/>
    <path id="Path_3" data-name="Path 3" d="M.2,2.25c-5.635,0-9.2,3.2-9.2,7.434,0,3.644,2.747,5.926,6.741,7.4,2.889,1.03,4.031,1.951,4.031,3.459,0,1.656-1.32,2.723-3.817,2.723a12.622,12.622,0,0,1-5.85-1.547v0L-9,26.317a14.43,14.43,0,0,0,6.634,1.547c6.6,0,9.666-3.533,9.666-7.691,0-3.533-1.962-5.814-6.206-7.434-3.139-1.251-4.459-1.95-4.459-3.532,0-1.252,1.142-2.392,3.5-2.392A10.067,10.067,0,0,1,4.972,8.072L6.363,3.414A14.99,14.99,0,0,0,.2,2.25Z" transform="translate(25.3 -2.25)"/>
  </g>
</svg>
