<svg xmlns="http://www.w3.org/2000/svg" width="57.387" height="50" viewBox="0 0 62.007 54.025">
  <path id="logoblack" d="M47.646,208.825a5.819,5.819,0,0,1-.567,1.78c-.5,1.335-.875,2.648-1.416,3.925H45.7v-.041a4.876,4.876,0,0,0,.567-1.254c.407-.925.8-1.965,1.255-2.873.155-.311.372-1.21.728-1.254.194.145.455.178.567.4a2,2,0,0,1-.081,1.173c-.34.994-.676,1.989-1.052,2.994-.755,2.018-1.457,4.153-2.145,6.231-.215.65-.31,1.245-.526,1.9a17.7,17.7,0,0,0-1.093,4.815h.041a6.585,6.585,0,0,1,.688-.486,4.655,4.655,0,0,0,.809-.971c.119-.16.326-.287.445-.445.19-.252.409-.659.809-.688v.081a8.495,8.495,0,0,0-1.052,1.376c-.268.359-.664.651-.931,1.011a11.309,11.309,0,0,0-1.133,1.861h.041c.3-.458.807-.781,1.133-1.214.86-1.14,1.831-2.215,2.671-3.358.372-.507.907-1.693,1.5-1.9v.081a3.68,3.68,0,0,0-.526.85q-.591.9-1.214,1.78c-.577.819-1.319,1.538-1.9,2.347a24.5,24.5,0,0,0-1.983,3.2h.041v-.04a10.2,10.2,0,0,0,1.052-1.254c.217-.288.551-.521.769-.809a2.57,2.57,0,0,1,.567-.647v.081a4.9,4.9,0,0,0-.607,1.133h.081c.055-.084.319-.3.364-.243.026.035.054.127.081.162v-.041a4.377,4.377,0,0,0,.647-1.052h-.122a2.036,2.036,0,0,1,.931-1.5.338.338,0,0,0,.041.2v-.081c.406-.392.483-.843.809-1.295a6.222,6.222,0,0,0,.567-.688,9.68,9.68,0,0,1,.4-.89c.111-.167.342-.361.4-.566.013-.043-.068-.073-.041-.162.01-.033.111-.129.121-.162s-.075-.073-.041-.162c.091-.233.373-.481.445-.728a1.5,1.5,0,0,0-.081-.526c-.123-.524,0-1.19-.081-1.7a4.575,4.575,0,0,1,.081-1.052v-.445l.283-1.74c.891-3.149,2.021-5.932,4.33-7.647a10.96,10.96,0,0,1,1.416-1.011,7.989,7.989,0,0,1,4.816-.526,16.988,16.988,0,0,1,3.683,1.5,8.427,8.427,0,0,0,1.578.809,9.487,9.487,0,0,1,.364-2.185c.323-1.289.369-2.642.688-3.884.357-1.39.423-2.738.85-4.046.372-1.141.6-2.376,1.052-3.479,1.314-3.2,2.658-6.2,4.9-8.456a11.556,11.556,0,0,1,3.683-2.751c2.555-1.043,4.81,1.163,5.665,2.549,1.6,2.589.8,6.609-.243,9.144-.556,1.353-1.023,2.625-1.659,3.844-.141.27-.206.549-.364.809-.625,1.029-1.18,2.1-1.821,3.115-.827,1.309-1.794,2.534-2.711,3.763-.964,1.29-2.264,2.313-3.237,3.6-.525.695-1.179.993-1.416,2.023q-.04,3.176-.081,6.352c0,1.024-.046,2.159.04,3.115a18.551,18.551,0,0,0,.041,1.942c.145.66-.06,1.544.081,2.185v.85c.245,1.1.08,2.416.324,3.479q.061.607.121,1.214a9.809,9.809,0,0,0,1.133,3.479,3.743,3.743,0,0,0,2.306,1.133c.012.227.07.245.081.486-.089.107-.129.286-.243.364-.254.175-.521.119-.89.2a5.126,5.126,0,0,1-3.48-.526,8.334,8.334,0,0,1-.809-.688,6.965,6.965,0,0,1-1.74-2.792,37.106,37.106,0,0,1-1.538-5.138l-.486-2.873c-.273-1.179-.18-2.5-.445-3.641-.1-.41-.009-1.16-.2-1.457-.043-.03-.038-.024-.121-.041a23.266,23.266,0,0,1-1.295,1.983,15.892,15.892,0,0,1-4.006,4.936,7.512,7.512,0,0,1-1.335.89,6.752,6.752,0,0,1-5.827-.485,8.356,8.356,0,0,1-2.792-3.8,11.415,11.415,0,0,1-.364-1.254c-.061-.22-.011-.478-.121-.647v.081c-.1.116-.116.263-.2.4-.309.508-.571,1.057-.89,1.578-.744,1.212-1.494,2.442-2.307,3.6-.792,1.129-1.726,2.148-2.549,3.237-.361.477-1,.759-1.335,1.254-.943-.359-2.391-.675-2.833-1.537a5.454,5.454,0,0,1-.2-2.792l.041-1.416.243-2.225c.378-1.6.539-3.268.931-4.815.248-.978.234-2,.567-2.913h-.041c-.159.241-.437.382-.607.607a14.488,14.488,0,0,1-1.295,1.335c-.214.219-.391.472-.607.688l-.647.607c-.427.564-1,1.022-1.416,1.578a9.36,9.36,0,0,1-3.318,2.711,4.359,4.359,0,0,1-3.035-.04c-1.567-.636-2.973-1.477-3.4-3.237a5.44,5.44,0,0,1,.121-1.942c.12-.477.1-.892.243-1.335.354-1.083.746-2.139,1.174-3.116a34.1,34.1,0,0,1,3.763-6.352,14.1,14.1,0,0,1,7.608-5.786,5.209,5.209,0,0,1,1.416-.121c2.176,0,3.184.909,4.411,1.821.4.3,1.535,1,.931,1.74-.043.03-.038.024-.121.04-.222-.17-.595-.149-.89-.243a10.89,10.89,0,0,0-1.295-.4c-.166-.028-.554.218-.688.283a14.351,14.351,0,0,0-1.7.89,19.748,19.748,0,0,0-6.475,8.132c-.465,1.058-1.018,2.1-1.5,3.2-.077.175-.554.983-.486,1.092l.081.121c.044-.037,0,0,.041-.041A36.657,36.657,0,0,0,37,216.31c.25-.189.439-.5.688-.688.715-.541,1.308-1.2,2.023-1.74l.324-.364c.552-.417,1-.966,1.538-1.375a10.994,10.994,0,0,0,1.133-.971,8.782,8.782,0,0,0,1.255-1.538c.2-.322.309-.639.526-.931a3.786,3.786,0,0,1,1.578-1.052,1.783,1.783,0,0,0,.121.728c.069-.206.244-.25.526-.243a2.266,2.266,0,0,0,.324.243l-.081.526H47C47.231,208.669,47.327,208.768,47.646,208.825Zm33.386-22.5c-.188.129-.469.111-.688.2a4.626,4.626,0,0,0-.931.607,3.025,3.025,0,0,0-.526.607c-.355.47-.788.925-1.133,1.416-.379.54-.621,1.123-.971,1.7-1.562,2.569-2.257,5.819-3.156,9.063-.274.987-.265,1.969-.526,2.994-.2.8-.231,1.67-.445,2.508a18.265,18.265,0,0,0-.4,2.063h.081c.094-.136.256-.2.364-.324.215-.241.46-.514.647-.769.41-.557.76-1.141,1.173-1.7.425-.574.96-1.111,1.376-1.7a42.587,42.587,0,0,0,5.544-9.993,10.057,10.057,0,0,0,.324-5.341C81.618,187.207,81.456,186.486,81.032,186.33Zm-5.261.081-.081.121.162-.081c-.041-.033-.011-.014-.081-.04Zm2.226.526c-.3.316-.744.5-1.012.85a20.117,20.117,0,0,0-2.469,4.127,6.514,6.514,0,0,0-.688,1.618h.041v-.041a7.927,7.927,0,0,0,.688-1.295c.428-.7.776-1.469,1.214-2.185.4-.646.809-1.3,1.254-1.9.3-.41.729-.747,1.012-1.173Zm-2.914.243c-.33.515-.808.914-1.133,1.457h.041C74.179,188.317,75.112,187.451,75.083,187.18Zm8.094,3.682c-.063.06-.074.031-.122.121a4.485,4.485,0,0,0-.364,1.173c-.326.977-.56,2.053-.931,3.034a26.916,26.916,0,0,1-2.1,4.45c-.316.52-.5,1.066-.809,1.578-.236.385-.5.8-.769,1.173-.094.127-.275.232-.364.364-.191.28-.294.576-.486.85a5.284,5.284,0,0,0-.4.526l-.041.243c-.039.059-.207.066-.243.121v.4a.286.286,0,0,1,.081.162h.041v-.445c.035-.066.192-.067.243-.121a9.036,9.036,0,0,0,.486-.809c.441-.708.859-1.361,1.335-2.023a11.072,11.072,0,0,0,.931-1.173H79.7v.121a3.246,3.246,0,0,0-.283.688,10.1,10.1,0,0,1-.688,1.254c-.706,1.12-1.581,2.125-2.266,3.277h.04v-.041c.75-.5.913-1.9,1.781-2.185a.648.648,0,0,0,.081.243c.031-.445.412-.643.607-.931a12.429,12.429,0,0,0,.769-1.5c-.094-.008-.114-.008-.162-.041a3.481,3.481,0,0,0,.567-.89h.041l.041.2h.04a3.77,3.77,0,0,1,.647-1.416c.069-.094.234-.172.283-.283.078-.175.011-.329.081-.486l.445-.607c.072-.161.01-.3.081-.486.049-.129.226-.235.283-.364l.162-.688c.124-.3.456-.689.607-1.052a18.219,18.219,0,0,0,.607-2.387,3.962,3.962,0,0,0,.2-1.254c-.045-.358-.269-.534-.364-.809h-.121Zm-.809.162a.564.564,0,0,0,.081.283C82.453,191.143,82.47,191.085,82.367,191.023Zm0,.526a.7.7,0,0,1-.243.081v.081a5.991,5.991,0,0,0-.243,1.092c-.258.777-.528,1.537-.85,2.266a52.228,52.228,0,0,1-5.018,8.86c-.78,1.11-1.7,2.118-2.509,3.2-.275.364-1.138.954-1.173,1.457h.04c.275-.432.708-.768,1.012-1.173.91-1.215,1.918-2.364,2.792-3.6,1.173-1.661,2.282-3.385,3.359-5.138.268-.437.42-.894.688-1.335a14.848,14.848,0,0,0,2.226-5.786h-.081Zm-8.741,2.428a4.551,4.551,0,0,0-.324.688h.041c.087-.094.19-.2.283-.283a1.59,1.59,0,0,0,0-.4Zm2.549,11.045a1.831,1.831,0,0,0-.445.971h.041v-.081a2.522,2.522,0,0,0,.364-.526c.108-.143.305-.171.445-.283a1.188,1.188,0,0,1-.4-.081Zm-.971,1.416c-.126.158-.2.131-.2.445h.04V206.8a1.734,1.734,0,0,0,.324-.324Zm.769,0-.445.566h.04c.124-.138.57-.285.4-.566Zm-1.214.607c-.048.032-.068.031-.162.04l-.769,1.214h.041c.3-.456.792-.742,1.052-1.254Zm-37.27,1.335a1.553,1.553,0,0,1-.4.324,6.343,6.343,0,0,0-1.093,1.214,29.873,29.873,0,0,0-3.359,5.745,16.127,16.127,0,0,0-1.457,4.329h.041v-.04a3.62,3.62,0,0,0,.4-1.012c.322-.771.627-1.567.971-2.346a42.984,42.984,0,0,1,3.035-5.664c.4-.633.888-1.252,1.335-1.861C37.1,208.88,37.507,208.573,37.489,208.38Zm-3.44.04c-.28.441-.708.823-1.012,1.254-.62.881-1.045,1.847-1.619,2.792a20.806,20.806,0,0,0-1.376,2.63h.041v-.041a11.161,11.161,0,0,0,.647-1.173c.613-1,1.109-2.113,1.74-3.115.3-.483.634-.987.971-1.457a3.251,3.251,0,0,0,.607-.85h.041v-.041Zm11.736.364c-.015.182-.053.174-.121.283H45.7c.041-.032.011-.014.081-.041.02-.112.057-.151,0-.243ZM65.573,211.9c-.094-.008-.114-.008-.162-.041-.2-.068-.261-.216-.4-.324-.892-.671-1.4-1.749-2.468-2.225a2.277,2.277,0,0,0-1.457-.243c-.781.216-1.693,1.372-2.145,1.983-.365.493-.763,1-1.093,1.537a16.5,16.5,0,0,0-1.5,4.046c-.289,1.031-.237,2.151-.486,3.277a9.556,9.556,0,0,0,.04,2.144q.02.607.041,1.214c.3,1.316.35,2.746,1.173,3.52v-.041a11.306,11.306,0,0,0,2.711-3.115c.452-.642,1-1.258,1.457-1.9.744-1.056,1.426-2.116,2.145-3.2.537-.807,1.052-1.62,1.578-2.468a4.315,4.315,0,0,0,.567-1.012Zm-20.557-1.983a2.5,2.5,0,0,0-.243.485h.041v-.081c.086-.083.241-.335.2-.4Zm1.174.364c-.14.174-.27.162-.283.486.044.037,0,0,.041.041.033-.041.014-.011.041-.081.086-.085.238-.379.2-.445Zm-12.221.728c-.291.511-.7.965-1.012,1.457a20.819,20.819,0,0,0-1.133,2.063h.041v-.041a6.3,6.3,0,0,0,.607-1.012c.325-.523.722-1.05,1.052-1.578A5.737,5.737,0,0,0,33.968,211.01ZM56.1,212.3v.081h.04C56.119,212.314,56.137,212.346,56.1,212.3Zm-.162.324a5.891,5.891,0,0,0-.931,1.861A22.863,22.863,0,0,0,54.08,217c-.183.615-.143,1.294-.283,1.942a8.186,8.186,0,0,0,.081,2.185c.068.306-.021.627.121.85a30.675,30.675,0,0,1,.4-3.682c.177-.788.08-1.544.283-2.266a19.664,19.664,0,0,1,1.376-3.4Zm-2.469,2.306c-.108.114-.152.091-.162.324.032.041.014.011.04.081.033-.041.014-.011.041-.081A.372.372,0,0,0,53.473,214.934Zm-1.7.041c-.115.513-.314,1.04-.445,1.578l-.081.971a1.843,1.843,0,0,0-.041.93,7.219,7.219,0,0,1,.283-1.7c.079-.312.041-.546.121-.85C51.67,215.687,51.865,215.164,51.774,214.975Zm1.5.566a5.264,5.264,0,0,0-.607,3.115H52.7a4.118,4.118,0,0,1,.2-.971c.132-.479.115-.9.243-1.376C53.2,216.118,53.377,215.733,53.271,215.541Zm-8.215.85c.015.084.01.078.041.121C45.082,216.428,45.087,216.434,45.056,216.391Zm10.238.769c.015.084.01.078.04.121v-.121Zm-10.724.89c-.076.352-.266.632-.324,1.011h.041v-.041a1.44,1.44,0,0,0,.283-.971Zm-.647,2.185c.008.094.008.115.041.162-.008-.094-.008-.114-.041-.162Zm-12.869.2a.338.338,0,0,0,.041.2.339.339,0,0,0-.041-.2Zm52.931,0c2.277-.028,3.528.655,4.371,2.023a4.78,4.78,0,0,1,.486,1.173,4.4,4.4,0,0,1-3.318,5.381,4.877,4.877,0,0,1-2.145-.081,4.2,4.2,0,0,1-3.076-4.167,4.124,4.124,0,0,1,.121-1.254,4.478,4.478,0,0,1,2.469-2.792,9.543,9.543,0,0,0,1.092-.283Zm-40.791,2.792c.015.084.01.078.041.121C43.22,223.266,43.225,223.272,43.195,223.228Zm1.416,6.15c-.057.183-.181.263-.243.445h.041c.129-.126.2-.092.2-.364.023-.029.058,0,.041-.081h-.041Zm-.526.728c-.057.176-.19.265-.283.4h.041C43.953,230.405,44.167,230.278,44.085,230.107Z" transform="translate(-26.999 -183.995)" fill-rule="evenodd"/>
</svg>
