<svg xmlns="http://www.w3.org/2000/svg" width="29.694" height="25.984" viewBox="0 0 29.694 25.984">
  <path id="react" d="M24.254,10.671q-.47-.157-.94-.3c.052-.215.1-.429.145-.644.713-3.457.244-6.235-1.34-7.151-1.525-.876-4.013.035-6.53,2.227-.249.215-.493.441-.725.667-.157-.151-.319-.3-.481-.447C11.744,2.685,9.1,1.7,7.516,2.621,6,3.5,5.545,6.119,6.182,9.39c.064.325.133.644.215.969-.371.1-.737.22-1.079.342C2.221,11.773,0,13.467,0,15.218c0,1.81,2.366,3.625,5.585,4.727.261.087.522.174.789.249-.087.348-.162.69-.232,1.044-.609,3.219-.133,5.771,1.386,6.646,1.566.9,4.2-.023,6.762-2.268.2-.18.406-.365.609-.563.255.249.522.487.789.719,2.482,2.134,4.936,3,6.449,2.123,1.566-.9,2.076-3.648,1.415-6.989q-.078-.383-.174-.783c.186-.052.365-.11.545-.168,3.346-1.108,5.771-2.9,5.771-4.738,0-1.757-2.285-3.462-5.44-4.547ZM16.407,5.747c2.157-1.879,4.17-2.616,5.086-2.088.98.563,1.357,2.836.742,5.823-.041.2-.081.389-.133.58a29.69,29.69,0,0,0-3.9-.615,29.3,29.3,0,0,0-2.471-3.08c.226-.215.447-.418.679-.621ZM9.7,18.228c.3.5.6,1.009.916,1.5A26.263,26.263,0,0,1,7.922,19.3a27.093,27.093,0,0,1,.945-2.581c.267.51.539,1.015.829,1.514ZM7.94,11.251c.835-.186,1.723-.336,2.645-.452-.307.481-.609.974-.893,1.473s-.563,1-.824,1.508c-.365-.864-.673-1.711-.928-2.529Zm1.589,4c.383-.8.8-1.583,1.241-2.355s.916-1.52,1.415-2.256c.87-.064,1.757-.1,2.662-.1s1.8.035,2.662.1q.739,1.1,1.409,2.244t1.259,2.343q-.583,1.2-1.253,2.366c-.441.771-.911,1.52-1.4,2.262-.864.064-1.763.093-2.674.093s-1.792-.029-2.645-.081q-.757-1.1-1.427-2.262C10.329,16.831,9.917,16.048,9.529,15.247ZM20,18.217c.3-.51.574-1.027.847-1.549a26.923,26.923,0,0,1,.98,2.569A25.474,25.474,0,0,1,19.1,19.7C19.417,19.214,19.713,18.715,20,18.217Zm.835-4.437c-.273-.51-.551-1.021-.841-1.52s-.58-.98-.887-1.462a26.689,26.689,0,0,1,2.662.464A25.667,25.667,0,0,1,20.838,13.78ZM14.859,7.255a25.468,25.468,0,0,1,1.717,2.076c-1.148-.052-2.3-.052-3.451,0C13.693,8.583,14.279,7.887,14.859,7.255ZM8.131,3.7c.974-.568,3.138.244,5.417,2.262.145.128.29.267.441.406A29.466,29.466,0,0,0,11.5,9.448a30.571,30.571,0,0,0-3.9.6c-.075-.3-.139-.6-.2-.9-.545-2.807-.186-4.924.731-5.452ZM6.71,18.988c-.244-.07-.481-.145-.719-.226a11.829,11.829,0,0,1-3.654-1.81,2.6,2.6,0,0,1-1.09-1.734c0-1.061,1.833-2.418,4.477-3.341.331-.116.667-.22,1-.319a30.839,30.839,0,0,0,1.421,3.689A31.7,31.7,0,0,0,6.71,18.988Zm6.762,5.684A10.615,10.615,0,0,1,10.2,26.719a2.567,2.567,0,0,1-2.047.075c-.922-.534-1.3-2.581-.783-5.336.064-.325.133-.65.215-.969a29.014,29.014,0,0,0,3.938.568,30.606,30.606,0,0,0,2.505,3.1C13.844,24.335,13.658,24.509,13.473,24.672Zm1.421-1.409c-.592-.638-1.183-1.346-1.757-2.105.557.023,1.131.035,1.711.035.6,0,1.183-.012,1.763-.041a25.011,25.011,0,0,1-1.717,2.111ZM22.474,25a2.578,2.578,0,0,1-.957,1.815c-.922.534-2.888-.162-5.011-1.983-.244-.209-.487-.435-.737-.667a28.69,28.69,0,0,0,2.447-3.109,28.59,28.59,0,0,0,3.955-.609c.058.238.11.476.157.708A10.572,10.572,0,0,1,22.474,25Zm1.056-6.235c-.162.052-.325.1-.493.151a29.462,29.462,0,0,0-1.479-3.7,29.315,29.315,0,0,0,1.421-3.648c.3.087.592.18.87.273,2.7.928,4.6,2.308,4.6,3.364,0,1.137-2.024,2.6-4.918,3.561Zm-8.682-.87a2.656,2.656,0,1,0-2.656-2.656A2.656,2.656,0,0,0,14.847,17.9Z" transform="translate(0 -2.251)"/>
</svg>
