<svg id="tailwind-css-seeklogo.com" xmlns="http://www.w3.org/2000/svg" width="38.07" height="22.842" viewBox="0 0 38.07 22.9">
  <path id="Path_13" data-name="Path 13" d="M19.035,0Q11.421,0,9.517,7.614q2.855-3.807,6.662-2.855a8.115,8.115,0,0,1,3.629,2.575c1.866,1.894,4.026,4.087,8.744,4.087q7.614,0,9.517-7.614-2.855,3.807-6.662,2.855a8.115,8.115,0,0,1-3.629-2.575C25.913,2.192,23.753,0,19.035,0ZM9.517,11.421Q1.9,11.421,0,19.035q2.855-3.807,6.662-2.855a8.115,8.115,0,0,1,3.629,2.575c1.866,1.894,4.026,4.087,8.744,4.087q7.614,0,9.517-7.614Q25.7,19.035,21.89,18.083a8.115,8.115,0,0,1-3.629-2.575C16.4,13.613,14.235,11.421,9.517,11.421Z"/>
</svg>
