<svg xmlns="http://www.w3.org/2000/svg" width="28.987" height="28.263" viewBox="0 0 28.987 28.263">
  <path id="xd" d="M23.854.45H5.133A5.129,5.129,0,0,0,0,5.583v18a5.129,5.129,0,0,0,5.133,5.133H23.854a5.129,5.129,0,0,0,5.133-5.133v-18A5.129,5.129,0,0,0,23.854.45Zm3.913,22.658A4.376,4.376,0,0,1,23.4,27.5H5.592A4.392,4.392,0,0,1,1.208,23.12V6.042A4.392,4.392,0,0,1,5.592,1.658H23.383a4.384,4.384,0,0,1,4.384,4.384ZM11.462,13.675l3.382,6.5c.06.1.024.193-.072.193h-2.1a.237.237,0,0,1-.254-.157c-.773-1.594-1.558-3.189-2.367-4.9h-.024C9.3,16.924,8.5,18.627,7.73,20.222a.232.232,0,0,1-.217.133H5.52c-.121,0-.133-.1-.072-.169l3.309-6.3L5.556,7.5a.1.1,0,0,1,.072-.169H7.706a.19.19,0,0,1,.217.133c.761,1.594,1.534,3.237,2.259,4.843h.024c.7-1.594,1.474-3.249,2.222-4.831.06-.1.1-.157.217-.157H14.59c.1,0,.133.072.072.169Zm3.974,1.969a4.724,4.724,0,0,1,4.843-5.012,5.356,5.356,0,0,1,.628.024v-3.2a.121.121,0,0,1,.121-.121h1.908c.1,0,.121.036.121.1V18.519a8.6,8.6,0,0,0,.06,1.184c0,.072-.024.1-.1.133a7.194,7.194,0,0,1-3.092.7C17.308,20.548,15.436,18.929,15.436,15.644Zm5.471-3.092a1.827,1.827,0,0,0-.7-.121c-1.522,0-2.585,1.172-2.585,3.116,0,2.222,1.087,3.116,2.452,3.116a2.279,2.279,0,0,0,.833-.133V12.552Z" transform="translate(0 -0.45)"/>
</svg>
